<mxfile host="app.diagrams.net" modified="2023-01-30T03:00:57.285Z" agent="5.0 (Windows NT 10.0; Win64; x64) AppleWebKit/537.36 (KHTML, like Gecko) Chrome/109.0.0.0 Safari/537.36" etag="_IXUPS5VgQPT4xLLPJI4" version="20.8.13" type="github">
  <diagram name="Page-1" id="74e2e168-ea6b-b213-b513-2b3c1d86103e">
    <mxGraphModel dx="1593" dy="860" grid="1" gridSize="10" guides="1" tooltips="1" connect="1" arrows="1" fold="1" page="1" pageScale="1" pageWidth="1100" pageHeight="850" background="none" math="0" shadow="0">
      <root>
        <mxCell id="0" />
        <mxCell id="1" parent="0" />
        <mxCell id="77e6c97f196da883-1" value="电池片解决方案" style="swimlane;html=1;childLayout=stackLayout;startSize=20;rounded=0;shadow=0;labelBackgroundColor=none;strokeWidth=1;fontFamily=Verdana;fontSize=8;align=center;" parent="1" vertex="1">
          <mxGeometry x="70" y="40" width="1330" height="750" as="geometry" />
        </mxCell>
        <mxCell id="77e6c97f196da883-2" value="机台" style="swimlane;html=1;startSize=20;" parent="77e6c97f196da883-1" vertex="1">
          <mxGeometry y="20" width="340" height="730" as="geometry" />
        </mxCell>
        <mxCell id="77e6c97f196da883-8" value="机台（仿真）" style="rounded=1;whiteSpace=wrap;html=1;shadow=0;labelBackgroundColor=none;strokeWidth=1;fontFamily=Verdana;fontSize=8;align=center;" parent="77e6c97f196da883-2" vertex="1">
          <mxGeometry x="110" y="65" width="100" height="60" as="geometry" />
        </mxCell>
        <mxCell id="77e6c97f196da883-9" value="" style="rounded=1;whiteSpace=wrap;html=1;shadow=0;labelBackgroundColor=none;strokeWidth=1;fontFamily=Verdana;fontSize=8;align=center;" parent="77e6c97f196da883-2" vertex="1">
          <mxGeometry x="90" y="220" width="100" height="60" as="geometry" />
        </mxCell>
        <mxCell id="77e6c97f196da883-26" style="edgeStyle=orthogonalEdgeStyle;rounded=1;html=1;labelBackgroundColor=none;startArrow=none;startFill=0;startSize=5;endArrow=classicThin;endFill=1;endSize=5;jettySize=auto;orthogonalLoop=1;strokeWidth=1;fontFamily=Verdana;fontSize=8" parent="77e6c97f196da883-1" source="77e6c97f196da883-8" target="77e6c97f196da883-11" edge="1">
          <mxGeometry relative="1" as="geometry" />
        </mxCell>
        <mxCell id="hsNV3JfmAN6WM8ltQ2-S-6" value="采集" style="edgeLabel;html=1;align=center;verticalAlign=middle;resizable=0;points=[];" vertex="1" connectable="0" parent="77e6c97f196da883-26">
          <mxGeometry x="-0.1182" y="3" relative="1" as="geometry">
            <mxPoint as="offset" />
          </mxGeometry>
        </mxCell>
        <mxCell id="77e6c97f196da883-30" style="edgeStyle=orthogonalEdgeStyle;rounded=1;html=1;labelBackgroundColor=none;startArrow=none;startFill=0;startSize=5;endArrow=classicThin;endFill=1;endSize=5;jettySize=auto;orthogonalLoop=1;strokeWidth=1;fontFamily=Verdana;fontSize=8" parent="77e6c97f196da883-1" target="77e6c97f196da883-9" edge="1">
          <mxGeometry relative="1" as="geometry">
            <mxPoint x="750.0000000000005" y="330" as="sourcePoint" />
          </mxGeometry>
        </mxCell>
        <mxCell id="107ba76e4e335f99-3" style="edgeStyle=orthogonalEdgeStyle;rounded=1;html=1;labelBackgroundColor=none;startArrow=none;startFill=0;startSize=5;endArrow=classicThin;endFill=1;endSize=5;jettySize=auto;orthogonalLoop=1;strokeColor=#000000;strokeWidth=1;fontFamily=Verdana;fontSize=8;fontColor=#000000;" parent="77e6c97f196da883-1" edge="1">
          <mxGeometry relative="1" as="geometry">
            <mxPoint x="670" y="610" as="sourcePoint" />
            <mxPoint x="940" y="609.9999999999998" as="targetPoint" />
          </mxGeometry>
        </mxCell>
        <mxCell id="77e6c97f196da883-3" value="MCS" style="swimlane;html=1;startSize=20;" parent="77e6c97f196da883-1" vertex="1">
          <mxGeometry x="340" y="20" width="290" height="730" as="geometry" />
        </mxCell>
        <mxCell id="77e6c97f196da883-11" value="机台状态" style="rounded=1;whiteSpace=wrap;html=1;shadow=0;labelBackgroundColor=none;strokeWidth=1;fontFamily=Verdana;fontSize=8;align=center;" parent="77e6c97f196da883-3" vertex="1">
          <mxGeometry x="90" y="65" width="100" height="60" as="geometry" />
        </mxCell>
        <mxCell id="77e6c97f196da883-4" value="MCS调度" style="swimlane;html=1;startSize=20;" parent="77e6c97f196da883-1" vertex="1">
          <mxGeometry x="630" y="20" width="360" height="730" as="geometry" />
        </mxCell>
        <mxCell id="hsNV3JfmAN6WM8ltQ2-S-17" style="edgeStyle=orthogonalEdgeStyle;rounded=0;orthogonalLoop=1;jettySize=auto;html=1;exitX=0.5;exitY=1;exitDx=0;exitDy=0;entryX=0.5;entryY=0;entryDx=0;entryDy=0;" edge="1" parent="77e6c97f196da883-4" source="77e6c97f196da883-12" target="hsNV3JfmAN6WM8ltQ2-S-13">
          <mxGeometry relative="1" as="geometry" />
        </mxCell>
        <mxCell id="77e6c97f196da883-12" value="调度" style="rounded=1;whiteSpace=wrap;html=1;shadow=0;labelBackgroundColor=none;strokeWidth=1;fontFamily=Verdana;fontSize=8;align=center;" parent="77e6c97f196da883-4" vertex="1">
          <mxGeometry x="100" y="65" width="100" height="60" as="geometry" />
        </mxCell>
        <mxCell id="hsNV3JfmAN6WM8ltQ2-S-22" style="edgeStyle=orthogonalEdgeStyle;rounded=0;orthogonalLoop=1;jettySize=auto;html=1;" edge="1" parent="77e6c97f196da883-4" source="hsNV3JfmAN6WM8ltQ2-S-7" target="hsNV3JfmAN6WM8ltQ2-S-20">
          <mxGeometry relative="1" as="geometry" />
        </mxCell>
        <mxCell id="hsNV3JfmAN6WM8ltQ2-S-7" value="补充料架订单" style="rounded=1;whiteSpace=wrap;html=1;" vertex="1" parent="77e6c97f196da883-4">
          <mxGeometry x="190" y="260" width="100" height="60" as="geometry" />
        </mxCell>
        <mxCell id="hsNV3JfmAN6WM8ltQ2-S-18" style="edgeStyle=orthogonalEdgeStyle;rounded=0;orthogonalLoop=1;jettySize=auto;html=1;exitX=1;exitY=0.5;exitDx=0;exitDy=0;entryX=0.5;entryY=0;entryDx=0;entryDy=0;" edge="1" parent="77e6c97f196da883-4" source="hsNV3JfmAN6WM8ltQ2-S-13" target="hsNV3JfmAN6WM8ltQ2-S-7">
          <mxGeometry relative="1" as="geometry" />
        </mxCell>
        <mxCell id="hsNV3JfmAN6WM8ltQ2-S-19" style="edgeStyle=orthogonalEdgeStyle;rounded=0;orthogonalLoop=1;jettySize=auto;html=1;exitX=0;exitY=0.5;exitDx=0;exitDy=0;" edge="1" parent="77e6c97f196da883-4" source="hsNV3JfmAN6WM8ltQ2-S-13" target="hsNV3JfmAN6WM8ltQ2-S-14">
          <mxGeometry relative="1" as="geometry" />
        </mxCell>
        <mxCell id="hsNV3JfmAN6WM8ltQ2-S-13" value="是否有料架" style="rhombus;whiteSpace=wrap;html=1;" vertex="1" parent="77e6c97f196da883-4">
          <mxGeometry x="85" y="170" width="130" height="50" as="geometry" />
        </mxCell>
        <mxCell id="hsNV3JfmAN6WM8ltQ2-S-21" style="edgeStyle=orthogonalEdgeStyle;rounded=0;orthogonalLoop=1;jettySize=auto;html=1;" edge="1" parent="77e6c97f196da883-4" source="hsNV3JfmAN6WM8ltQ2-S-14" target="hsNV3JfmAN6WM8ltQ2-S-20">
          <mxGeometry relative="1" as="geometry" />
        </mxCell>
        <mxCell id="hsNV3JfmAN6WM8ltQ2-S-14" value="搬离料架订单" style="rounded=1;whiteSpace=wrap;html=1;" vertex="1" parent="77e6c97f196da883-4">
          <mxGeometry y="270" width="120" height="50" as="geometry" />
        </mxCell>
        <mxCell id="hsNV3JfmAN6WM8ltQ2-S-20" value="订单下发" style="rounded=1;whiteSpace=wrap;html=1;" vertex="1" parent="77e6c97f196da883-4">
          <mxGeometry x="90" y="360" width="120" height="60" as="geometry" />
        </mxCell>
        <mxCell id="hsNV3JfmAN6WM8ltQ2-S-1" style="edgeStyle=orthogonalEdgeStyle;rounded=0;orthogonalLoop=1;jettySize=auto;html=1;exitX=1;exitY=0.5;exitDx=0;exitDy=0;entryX=0;entryY=0.5;entryDx=0;entryDy=0;" edge="1" parent="77e6c97f196da883-1" source="77e6c97f196da883-11" target="77e6c97f196da883-12">
          <mxGeometry relative="1" as="geometry" />
        </mxCell>
        <mxCell id="77e6c97f196da883-5" value="RCS" style="swimlane;html=1;startSize=20;" parent="77e6c97f196da883-1" vertex="1">
          <mxGeometry x="990" y="20" width="340" height="730" as="geometry" />
        </mxCell>
        <mxCell id="77e6c97f196da883-34" style="edgeStyle=orthogonalEdgeStyle;rounded=1;html=1;labelBackgroundColor=none;startArrow=none;startFill=0;startSize=5;endArrow=classicThin;endFill=1;endSize=5;jettySize=auto;orthogonalLoop=1;strokeColor=#000000;strokeWidth=1;fontFamily=Verdana;fontSize=8;fontColor=#000000;" parent="77e6c97f196da883-5" edge="1">
          <mxGeometry relative="1" as="geometry">
            <mxPoint x="80.00000000000045" y="299.9999999999998" as="sourcePoint" />
            <mxPoint x="80.00000000000045" y="320.00000000000045" as="targetPoint" />
          </mxGeometry>
        </mxCell>
        <mxCell id="77e6c97f196da883-36" style="edgeStyle=orthogonalEdgeStyle;rounded=1;html=1;labelBackgroundColor=none;startArrow=none;startFill=0;startSize=5;endArrow=classicThin;endFill=1;endSize=5;jettySize=auto;orthogonalLoop=1;strokeWidth=1;fontFamily=Verdana;fontSize=8" parent="77e6c97f196da883-5" edge="1">
          <mxGeometry relative="1" as="geometry">
            <mxPoint x="80.00000000000045" y="619.9999999999998" as="sourcePoint" />
            <mxPoint x="80.00000000000045" y="640.0000000000005" as="targetPoint" />
          </mxGeometry>
        </mxCell>
        <mxCell id="hsNV3JfmAN6WM8ltQ2-S-12" style="edgeStyle=orthogonalEdgeStyle;rounded=0;orthogonalLoop=1;jettySize=auto;html=1;" edge="1" parent="77e6c97f196da883-5" source="hsNV3JfmAN6WM8ltQ2-S-9" target="hsNV3JfmAN6WM8ltQ2-S-11">
          <mxGeometry relative="1" as="geometry" />
        </mxCell>
        <mxCell id="hsNV3JfmAN6WM8ltQ2-S-9" value="执行" style="rounded=1;whiteSpace=wrap;html=1;" vertex="1" parent="77e6c97f196da883-5">
          <mxGeometry x="120" y="260" width="120" height="60" as="geometry" />
        </mxCell>
        <mxCell id="hsNV3JfmAN6WM8ltQ2-S-11" value="上报" style="rounded=1;whiteSpace=wrap;html=1;" vertex="1" parent="77e6c97f196da883-5">
          <mxGeometry x="120" y="380" width="120" height="60" as="geometry" />
        </mxCell>
        <mxCell id="hsNV3JfmAN6WM8ltQ2-S-10" style="edgeStyle=orthogonalEdgeStyle;rounded=0;orthogonalLoop=1;jettySize=auto;html=1;exitX=1;exitY=0.5;exitDx=0;exitDy=0;" edge="1" parent="77e6c97f196da883-1" source="hsNV3JfmAN6WM8ltQ2-S-7" target="hsNV3JfmAN6WM8ltQ2-S-9">
          <mxGeometry relative="1" as="geometry" />
        </mxCell>
      </root>
    </mxGraphModel>
  </diagram>
</mxfile>
